<?xml version="1.0" standalone="no"?>
<!DOCTYPE svg PUBLIC "-//W3C//DTD SVG 20010904//EN"
 "http://www.w3.org/TR/2001/REC-SVG-20010904/DTD/svg10.dtd">
<svg version="1.0" xmlns="http://www.w3.org/2000/svg"
 width="1062.000000pt" height="1062.000000pt" viewBox="0 0 1062.000000 1062.000000"
 preserveAspectRatio="xMidYMid meet">
<metadata>
Created by potrace 1.11, written by Peter Selinger 2001-2013
</metadata>
<g transform="translate(0.000000,1062.000000) scale(0.100000,-0.100000)"
fill="#000000" stroke="none">
<path d="M5038 10605 c-1 -1 -48 -6 -103 -9 -55 -4 -116 -9 -135 -11 -19 -3
-57 -7 -85 -10 -143 -15 -342 -48 -545 -90 -14 -3 -46 -10 -72 -15 -321 -64
-764 -223 -1143 -410 -443 -220 -772 -439 -1165 -779 -91 -78 -395 -383 -461
-461 -30 -36 -61 -72 -69 -80 -9 -8 -60 -71 -114 -140 -53 -69 -104 -133 -112
-143 -8 -9 -14 -20 -14 -23 0 -3 -7 -12 -14 -20 -29 -28 -225 -331 -298 -459
-207 -364 -351 -695 -481 -1110 -47 -152 -125 -475 -142 -595 -4 -24 -8 -47
-10 -50 -2 -3 -6 -27 -9 -53 -3 -25 -10 -75 -15 -109 -6 -35 -13 -90 -17 -123
-24 -233 -29 -332 -29 -615 1 -246 5 -358 19 -495 2 -16 6 -59 10 -95 3 -36 8
-76 11 -90 2 -14 9 -61 15 -105 7 -44 13 -87 15 -95 2 -8 10 -55 20 -105 9
-49 25 -128 37 -175 11 -47 21 -92 23 -100 6 -31 37 -146 45 -175 98 -314 160
-489 241 -672 63 -144 229 -467 305 -593 75 -125 210 -334 236 -365 5 -5 33
-44 64 -85 30 -41 60 -82 67 -90 195 -241 258 -312 442 -496 133 -133 273
-261 416 -379 56 -46 310 -234 345 -255 22 -13 41 -27 44 -30 5 -7 211 -134
270 -168 19 -11 69 -39 110 -63 210 -120 601 -292 870 -382 91 -31 296 -92
340 -103 8 -1 42 -10 75 -18 313 -78 593 -121 930 -144 217 -14 759 -7 875 12
14 3 57 7 95 11 86 8 108 11 260 36 389 65 740 164 1115 315 179 71 361 154
445 202 11 6 72 39 135 73 101 55 397 234 410 248 3 3 34 26 70 50 65 45 221
160 230 170 3 4 23 20 45 36 180 134 583 528 741 724 10 13 24 28 29 35 6 6
46 56 89 111 42 55 86 111 97 125 46 57 252 374 319 490 93 162 254 491 317
650 75 188 94 238 97 252 2 7 6 20 9 28 13 33 47 140 76 245 17 61 38 133 46
160 8 28 16 61 19 75 3 14 7 34 10 45 10 41 44 211 50 245 3 19 10 58 15 85 5
28 12 74 16 104 4 30 8 62 10 72 2 10 6 49 10 86 3 37 8 77 10 88 27 134 26
810 0 1035 -3 19 -7 60 -10 90 -9 78 -25 192 -30 210 -2 8 -6 33 -9 55 -6 52
-63 333 -82 405 -8 30 -19 71 -24 90 -27 103 -99 335 -120 385 -4 11 -27 72
-50 135 -92 249 -255 586 -393 815 -37 61 -74 124 -84 140 -10 17 -20 32 -23
35 -3 3 -32 46 -65 95 -82 123 -283 390 -340 451 -5 6 -35 39 -65 75 -130 151
-411 423 -609 589 -376 315 -917 637 -1386 823 -272 109 -622 218 -835 261
-14 3 -36 7 -50 10 -62 14 -287 55 -330 60 -14 2 -52 7 -85 11 -33 3 -71 9
-85 11 -14 2 -56 7 -95 10 -38 3 -83 8 -100 10 -37 5 -682 14 -687 9z"/>
</g>
</svg>
